<?xml version="1.0" standalone="no"?>
<!DOCTYPE svg PUBLIC "-//W3C//DTD SVG 20010904//EN"
 "http://www.w3.org/TR/2001/REC-SVG-20010904/DTD/svg10.dtd">
<svg version="1.0" xmlns="http://www.w3.org/2000/svg"
 width="260.000000pt" height="260.000000pt" viewBox="0 0 260.000000 260.000000"
 preserveAspectRatio="xMidYMid meet">
<metadata>
Created by potrace 1.11, written by Peter Selinger 2001-2013
</metadata>
<g transform="translate(0.000000,260.000000) scale(0.100000,-0.100000)"
fill="#000000" stroke="none">
<path d="M1325 2107 c-28 -31 -54 -49 -85 -58 -25 -7 -53 -22 -62 -33 l-18
-21 -6 23 c-4 12 -12 22 -19 22 -18 0 -61 -53 -90 -110 -36 -71 -79 -103 -181
-134 -49 -15 -98 -30 -109 -35 -15 -6 -27 1 -55 31 -33 34 -48 41 -95 41 -41
0 -56 -4 -51 -12 3 -5 0 -14 -8 -20 -10 -8 -26 -8 -64 0 -45 11 -54 10 -90 -9
-39 -20 -43 -20 -73 -5 -42 21 -81 21 -147 -1 -59 -20 -122 -73 -122 -104 0
-19 3 -20 38 -10 20 5 43 15 50 20 21 18 21 6 1 -57 -21 -67 -24 -99 -9 -90
17 10 62 16 58 8 -2 -4 -13 -25 -23 -45 -22 -43 -15 -57 32 -64 28 -4 36 1 84
63 115 145 185 218 194 203 4 -6 -4 -24 -18 -38 -36 -40 -124 -171 -141 -213
-12 -28 -12 -40 -3 -59 25 -50 182 -60 309 -20 l63 20 30 -35 30 -35 44 31
c58 41 77 25 32 -27 -43 -48 -71 -115 -71 -167 0 -40 34 -127 50 -127 5 0 18
-15 29 -34 18 -29 26 -33 51 -29 28 4 32 0 29 -24 0 -5 -7 -7 -15 -5 -23 5
-16 -18 16 -48 16 -15 30 -34 30 -41 0 -6 -15 -40 -34 -73 -44 -79 -38 -131
19 -188 28 -29 38 -31 113 -31 33 1 49 -5 70 -26 15 -15 49 -40 77 -56 41 -25
62 -30 125 -32 75 -2 75 -1 149 48 41 27 82 49 90 49 26 0 114 46 143 74 62
59 76 134 38 198 -22 38 -26 70 -16 125 5 29 3 33 -19 39 -29 7 -31 16 -10 34
8 7 15 24 15 38 0 14 -3 22 -7 19 -3 -4 -12 -2 -19 4 -18 15 13 98 46 124 37
28 150 147 150 156 0 4 -8 12 -17 18 -24 13 -11 24 34 26 20 2 41 9 47 17 17
22 39 15 43 -12 2 -20 -1 -26 -18 -27 -31 -3 -47 -20 -43 -49 5 -53 55 -72
124 -49 19 7 45 11 57 9 12 -2 34 3 50 11 15 8 38 15 51 15 21 0 28 5 69 58
16 20 36 27 95 31 10 0 32 14 51 31 l34 29 44 -21 c24 -12 47 -27 51 -32 4 -6
8 4 8 22 0 17 -3 32 -8 32 -4 0 -13 9 -19 19 -10 16 -8 24 13 48 27 31 30 47
11 63 -70 58 -101 80 -120 85 -12 4 -38 14 -57 22 l-35 16 33 15 c17 9 32 18
32 22 0 3 -14 21 -31 38 -38 39 -70 41 -116 6 -40 -31 -74 -41 -168 -50 -122
-11 -158 -19 -207 -46 l-36 -21 -34 32 c-45 42 -127 82 -174 84 -22 0 -57 -7
-79 -18 -40 -18 -125 -92 -125 -107 0 -5 12 -26 26 -48 34 -52 46 -104 28
-127 -17 -23 -18 -43 -1 -43 7 0 48 25 92 55 58 40 82 52 89 44 7 -8 8 -13 1
-15 -45 -17 -211 -142 -201 -152 3 -2 -8 -28 -24 -58 -32 -58 -32 -58 47 -23
23 10 45 23 48 30 6 8 10 7 16 -2 5 -8 9 -17 9 -20 0 -4 -40 -23 -90 -44 -49
-21 -90 -40 -90 -44 -1 -3 -2 -33 -5 -65 -4 -67 6 -96 35 -96 10 0 25 -3 34
-6 14 -5 14 -9 -1 -35 -18 -29 -17 -30 12 -54 38 -31 41 -31 70 0 13 15 26 22
29 16 6 -10 -2 -20 -38 -45 -19 -13 -18 -15 20 -52 23 -22 63 -47 92 -58 60
-21 72 -37 72 -96 0 -130 -105 -174 -315 -132 -67 14 -103 16 -140 9 -154 -26
-223 -31 -264 -17 -41 13 -71 52 -71 92 0 23 5 31 73 130 36 52 84 158 71 158
-3 0 14 28 39 63 51 71 63 102 48 121 -7 9 -5 23 9 49 22 42 26 72 9 83 -8 4
-2 12 15 21 35 18 35 55 0 78 l-27 17 28 22 c47 37 29 106 -27 106 -18 0 -36
26 -32 48 1 6 2 19 3 28 0 9 28 43 61 76 60 59 61 59 107 53 39 -5 48 -3 60
15 8 11 22 20 31 20 35 0 46 17 43 64 -2 51 5 55 40 27 l24 -19 26 81 c20 63
24 88 16 110 -11 32 -20 33 -56 8 -38 -27 -61 -13 -35 23 11 14 22 26 27 26 4
0 7 6 7 14 0 16 -22 27 -70 33 -31 4 -39 0 -75 -40z m75 -1528 c25 -6 51 -12
58 -13 55 -10 -77 -78 -149 -78 -52 1 -179 55 -179 77 0 7 16 12 36 13 20 1
39 4 42 7 9 9 146 5 192 -6z"/>
<path d="M1096 867 c-40 -49 -66 -95 -66 -118 0 -9 12 -28 27 -43 34 -34 86
-31 137 8 l35 26 -25 25 c-30 30 -41 31 -74 5 -26 -20 -50 -26 -50 -12 0 9 54
86 83 117 17 19 17 20 0 27 -29 11 -30 10 -67 -35z"/>
<path d="M1411 901 c-22 -6 -23 -7 -6 -21 29 -24 75 -92 69 -101 -3 -5 -17 -9
-32 -9 -20 0 -33 -8 -45 -29 -24 -41 -22 -48 17 -55 47 -9 83 8 102 48 22 46
12 79 -39 131 -34 34 -47 41 -66 36z"/>
</g>
</svg>
