<?xml version="1.0" standalone="no"?>
<!DOCTYPE svg PUBLIC "-//W3C//DTD SVG 20010904//EN"
 "http://www.w3.org/TR/2001/REC-SVG-20010904/DTD/svg10.dtd">
<svg version="1.0" xmlns="http://www.w3.org/2000/svg"
 width="260.000000pt" height="260.000000pt" viewBox="0 0 260.000000 260.000000"
 preserveAspectRatio="xMidYMid meet">
<metadata>
Created by potrace 1.11, written by Peter Selinger 2001-2013
</metadata>
<g transform="translate(0.000000,260.000000) scale(0.100000,-0.100000)"
fill="#000000" stroke="none">
<path d="M1324 2106 c-27 -30 -53 -48 -84 -57 -25 -7 -52 -21 -61 -32 -17 -20
-17 -20 -23 1 -15 45 -50 18 -109 -83 -52 -89 -75 -105 -200 -145 l-111 -36
-37 38 c-33 35 -40 38 -92 38 -44 0 -55 -3 -51 -14 8 -21 -20 -26 -80 -14 -52
11 -58 11 -87 -11 -30 -23 -33 -23 -59 -7 -79 46 -280 -27 -280 -101 0 -17 38
-16 73 1 24 13 27 13 27 -2 0 -9 -7 -39 -15 -66 -21 -68 -20 -69 21 -61 20 3
34 3 32 -2 -44 -88 -43 -98 8 -109 28 -5 34 -1 89 68 87 109 176 208 186 208
18 0 8 -22 -39 -83 -106 -136 -145 -227 -109 -254 6 -5 38 -15 71 -22 67 -15
141 -8 231 20 l60 19 28 -35 29 -35 45 31 c33 23 48 28 56 20 8 -8 4 -18 -15
-38 -41 -44 -78 -127 -78 -175 0 -46 16 -81 68 -149 28 -37 38 -43 63 -41 26
3 31 -1 28 -25 0 -5 -7 -7 -15 -5 -25 5 -15 -27 16 -50 17 -12 30 -28 30 -35
0 -8 -16 -44 -36 -82 -33 -62 -35 -71 -25 -107 6 -22 26 -55 46 -74 33 -32 40
-35 95 -33 54 1 62 -2 94 -32 67 -63 168 -96 249 -81 19 4 65 26 102 51 37 24
82 47 99 51 45 9 86 32 124 68 66 61 79 124 41 198 -16 31 -20 55 -17 102 3
57 1 61 -19 64 -27 4 -29 14 -8 32 8 7 15 21 15 32 0 10 -7 21 -15 24 -34 13
-4 101 48 140 21 16 62 55 90 88 48 55 50 59 32 72 -23 17 -17 23 31 31 22 3
44 12 50 19 16 20 46 6 42 -20 -2 -13 -12 -22 -26 -24 -31 -5 -45 -44 -30 -78
l12 -26 93 6 c51 4 105 14 121 22 15 7 36 14 47 14 26 0 36 8 63 47 18 25 31
32 73 38 35 5 61 16 83 36 l33 29 44 -22 c24 -11 47 -26 51 -32 4 -6 8 0 8 15
0 15 -9 38 -20 52 l-20 25 25 30 c24 29 33 62 17 62 -5 0 -27 16 -49 35 -22
19 -66 44 -97 55 -61 23 -68 33 -33 51 12 6 24 13 26 16 3 2 -11 19 -29 38
-42 43 -69 44 -123 5 -37 -26 -58 -32 -163 -45 -119 -15 -181 -30 -222 -56
-18 -11 -25 -9 -61 24 -114 103 -225 103 -333 -1 -21 -20 -38 -39 -38 -44 0
-4 14 -29 30 -55 30 -47 41 -115 20 -128 -15 -9 -12 -35 4 -35 8 0 41 20 73
44 80 58 100 69 108 55 4 -6 5 -11 4 -13 -141 -88 -209 -141 -209 -163 0 -9
-11 -36 -25 -59 l-25 -43 40 14 c23 8 55 24 71 35 26 19 30 20 35 5 8 -21 -1
-27 -88 -60 -36 -15 -71 -32 -76 -38 -15 -19 -24 -126 -12 -147 6 -11 19 -20
30 -20 10 0 25 -3 34 -6 14 -5 14 -9 -1 -35 -18 -29 -17 -30 12 -54 37 -30 40
-30 70 -1 14 14 27 21 30 16 3 -5 -9 -19 -26 -33 l-32 -24 41 -41 c24 -24 59
-46 91 -57 58 -19 71 -36 71 -95 0 -59 -25 -105 -68 -127 -46 -22 -155 -24
-265 -4 -66 13 -90 13 -160 2 -193 -31 -259 -23 -286 35 -19 43 -12 69 40 143
54 77 88 145 89 174 0 10 20 47 44 83 52 75 62 100 47 118 -7 9 -5 23 10 51
14 25 19 48 15 66 -4 22 -1 31 14 39 28 15 25 51 -7 76 l-28 22 28 13 c23 10
27 18 27 51 0 36 -3 40 -45 58 -25 11 -45 23 -45 27 0 38 27 86 75 132 54 53
56 54 103 47 39 -5 49 -3 59 13 6 10 25 21 42 24 30 6 31 9 31 57 0 55 6 59
42 30 l25 -19 22 74 c36 125 23 169 -37 127 -44 -32 -63 -13 -29 28 15 17 27
35 27 39 0 9 -61 31 -86 31 -11 0 -38 -20 -60 -44z m119 -1536 c47 -14 41 -25
-32 -57 -77 -35 -132 -33 -206 5 -94 49 -94 49 -44 61 53 12 229 7 282 -9z"/>
<path d="M1095 866 c-39 -48 -65 -94 -65 -117 0 -30 47 -69 82 -69 31 0 108
41 108 57 0 4 -12 19 -27 35 l-26 27 -29 -24 c-29 -25 -58 -33 -58 -17 0 8 21
38 80 113 l20 27 -25 5 c-21 3 -32 -4 -60 -37z"/>
<path d="M1418 903 c-24 -6 -24 -9 22 -61 22 -25 39 -50 37 -56 -2 -6 -18 -12
-35 -14 -24 -2 -36 -11 -47 -33 -19 -37 -14 -46 30 -55 61 -11 116 50 101 112
-9 36 -86 112 -108 107z"/>
</g>
</svg>
