<svg xmlns="http://www.w3.org/2000/svg" viewBox="0 0 82.68 55.6"><path d="M32.37 40.75c-1.35 3.02-4.07 5.41-4.07 6.58 0 3.19 2.55 3.68 4.82 3.68 1.42 0 6.39-1.13 7.81-1.13s5.23 1.13 6.65 1.13c4.96 0 6.8-1.49 6.8-5.1 0-3.61-2.16-2.12-4.86-4.24-.33-.28-.63-.6-.92-.93h5.89c-.03.28-.04.57.02.85.28 1.13 1.57 2.61 1.57 4.03 0 3.4-3.64 6.24-7.11 6.65-2.09.79-3.49 3.01-6.21 3.27-2.43.23-3.98-.28-6.06-1.57-1.15-.72-2.13-1.41-2.6-2.3-1.01-.1-2.98.57-4.49-.33-1.65-.99-2.44-2.88-2.44-4.3s2.27-3.68 2.27-5.1c0-.51-.74-.73-1.33-1.2l4.26.01zm2.78 10.89s3.9-.9 6.41-.78c2.35.11 5.91 1.23 5.91 1.23s-3.57 2.37-6.12 2.32c-2.65-.05-6.2-2.77-6.2-2.77z"/><path d="M28.1 40.75c-.38-.3-.71-.7-.74-1.36-.01-.12 1.49.11 1.45-.14-.06-.37-.56-.8-.49-1.07l-1.96.28c-.08-.75-1.39-1.52-.9-1.84-1.53-.5-2.4-2.82-2.4-4.87 0-1.5 1.74-5.15 3.51-6.13.06-.48-.41-.34-.6-.93 0 0-2.78 1.67-3.06 2.24-.28-.57-1.39-1.57-1.79-2.57-2.05 1.12-6.15 1.71-7.56 1.71-1.42 0-2.46-.57-4.36-.65-.08-.77-.65-.48-.65-1.9s4.68-7.79 5.73-8.76c0 0 .08-.32-.31-.81-1.52 1.09-6.69 7.46-7.93 9.26-1.83.03-1.83-.53-2.6-.62-.08-.77.84-2.25 1.38-3.21-.49-.41-1.75.46-2.55.34.53-1.96 1.16-3.57 1.38-5.56-.24.99-2.27 1.71-3.65 1.57.2-2.79 4.99-4.4 6.76-4.4 1.05 0 1.64.19 2.45.51.28.11.59.63.95.63.4 0 .7-.59 1-.77.86-.54 1.7-.98 4.89.21l.91-.83-.57-.58c2.06-.22 4.29-.85 6.05 2.56 2.63-1.13 5.63-1.39 8.26-3.02 1.84-1.13 3.01-5.91 5.16-6.47.63-.17.49 1.44.84 1.45.24.01.7-1.32.93-1.34 1.19-.11 2.29-.54 3.3-1.02.93-.44 1.54-2.66 2.96-2.66s1.7.57 3.08.71c-.96 1.81-1.93 2.11-1.86 2.62.02.17.75.36.84.64.26-.22 1.76-1.62 2.23-1.4.64.3.69 2.21.69 1.39 0 1.42-1.29 4.25-1.57 5.95-.29-.57-1.57-1.42-1.99-1.46-.46 1.02.01 2.03-.08 3.36-.62.08-3.43.27-2.58 1.68-1.25-.26-2.69-.46-3.7-.37-.68 1.19-2.15 2.07-2.85 2.87-.95 1.09-1.04 2.03-1.01 3.44.51.48 1.57.42 2.79 1.1v2.63c-.78.07-1.15.56-1.63.92.48.37.85.85 1.62.93.04.97.2 1.48-.14 1.82-.33.33-1.15.48-1.34.7.1.37.59.76.6 1.17.03.99-1.05 2.04-1.27 2.97-.08.32.53.63.53.9 0 1.45-1.87 3.42-3.15 5.47-.07.94-.34 1.84-.72 2.69l-4.28.02zm20.5 0c-.33-.38-.65-.77-.98-1.15-.05-.05 1.07-.43 1.55-.83.55-.45.47-.92.42-.98-.04-.04-.22-.41-.58-.24-.31.15.05.45-.2.75-.4.48-1.35.96-1.41.91-.44-.41-1.46-1.12-2.05-1.34-.06-.73.59-1.5 1.08-1.91-.28-.5-1.21-.87-1.92-.61-.74-.39-1.09-1.3-1.09-1.98 0-.78.74-.63.18-3.12 1.54-1.52 4.25-1.67 6.1-2.99.07-.34-.28-.68-.37-1.19-.85 1.06-3.19 1.9-4.68 2.38.76-.91 1.74-2.36 2-4.03 1.88-1.88 5.11-3.79 6.64-4.65 0 0 .07-.29-.4-.79-1.02.02-5.74 4.76-6.08 3.39-.27-1.08.76-.82.76-2.24 0-1.42-1.05-3.2-2.26-4.5 1.24-2.24 4.46-4.29 6.51-4.29 3.33 0 5.15 1.98 7.34 3.97 2.07-2.66 8.94-2.04 11.84-3.03.99-.28 1.95-1.98 3.49-1.85 1.53.13 1.83 1.51 3.11 2.39-.84.22-1.78.7-2.26 1.06 1.75 1.5 3.09 1 4.44 2.2.78.71 1.64 1.52 2.88 2.19.04.72-.61 1.48-1.68 2.52.01.66.72 1.12 1.19 1.74.26.34.01 1.17-.04 1.67-.37-.15-.28-.7-.62-.8-.97-.29-1.82-.53-2.59-1.32-.46.02-.88 1.11-1.44 1.46-1.13.77-2.95.82-4.02.95-.5.39-1.02 1.48-1.87 2.46-1 .25-2.55.15-3.4 1.13 0 0-2.51-.39-2.53.12-1.25.67-2.51.13-3.79.09 0 0-.05-.61-.7-1.35.52-.77.24-1.23.59-1.51s1.32-.37 1.72-.4V23.6c-.26-.16-.57-.32-1.17-.37-.46-.04-.01.67-.45.96-.28.18-1.45-.07-1.75.05-.69.27-2.23.87-1.52.78.46-.06.94.42 1.45.72-1.78 1.95-3.53 4.25-6.11 5.8.42.94-.69 1.61-.69 3.03 0 1.42 1.13-.28 1.13 1.13 0 1.42-1.13 1.42-1.16 1.88.51.47.87.39 1.64.47.06.98-.27 1.86-.37 2.68l-5.88.02zM37.26 41.01l-1.5-.39s-4.6 4.21-3.11 6.03c1.49 1.81 1.88 1.43 3.05 1.3 1.17-.13 3.12-1.94 3.12-1.94L36.8 44.2s-2.59 2.33-2.85 1.55c-.26-.79 3.31-4.74 3.31-4.74zM44.15 41.01l1.5-.39s4 2.92 2.91 5.19c-1.02 2.11-1.46 2.07-2.84 2.13-.85.04-2.08-.64-2.08-.64L45 44.97s1.75.46 2.01-.32c.25-.79-2.86-3.64-2.86-3.64z"/></svg>