<svg xmlns="http://www.w3.org/2000/svg" viewBox="0 0 154.8 646.19"><path d="M2 103.2V89.4l111.2-10.6c4.8-.4 9.4-.6 14.2-.8v-.8c-10-1.2-19.8-1.6-29.8-3.4L2 57.4V46l111.2-16.6c4.8-.8 9.4-1.2 14.2-1.8V27c-9.8-.4-20-.2-29.6-1.4L2 13.6V0l150.8 21.2v12l-112.4 17c-5 .8-10 1.2-15 1.8v.6c8.6 1 17.4 1.6 26 3l101.4 17.2v12L2 103.2zM77.4 194.4c-28.2 0-77.4-2-77.4-37 0-33 42.2-37 77.4-37 38.2 0 77.4 5 77.4 37 0 34-44.2 37-77.4 37zm0-59.6c-26.6 0-63.8 1-63.8 22.6S50.8 180 77.4 180s63.8-1 63.8-22.6c1-21.6-37.2-22.6-63.8-22.6zM77.4 288.6c-28.2 0-77.4-2-77.4-37 0-33 42.2-37 77.4-37 38.2 0 77.4 5 77.4 37 0 34-44.2 37-77.4 37zm0-59.6c-26.6 0-63.8 1-63.8 22.6s37.2 22.6 63.8 22.6 63.8-1 63.8-22.6c1-21.6-37.2-22.6-63.8-22.6zM77.4 382.8c-28.2 0-77.4-2-77.4-37 0-33 42.2-37 77.4-37 38.2 0 77.4 5 77.4 37 0 34-44.2 37-77.4 37zm0-59.6c-26.6 0-63.8 1-63.8 22.6s37.2 22.6 63.8 22.6 63.8-1 63.8-22.6c1-21.6-37.2-22.6-63.8-22.6zM152.8 427c0 19.8-2.4 36.2-37.4 36.2-14.8 0-27.4-2.6-35.4-17.6-5.8 18-19.8 21.2-36.6 21.2C12 466.8 2 456 2 425.6v-18.2h150.8V427zm-78.6-5.6H14v3.8c0 21 6.8 27.2 28.4 27.2 25.4 0 31.8-9 31.8-26.8v-4.2zm66.6 0H86.2v3.8c0 11.4-2 23.6 28.2 23.6 23.8 0 26.4-5.6 26.4-23.6v-3.8zM2 506v-14h150.8v14H2zM14.8 549v32.8H2V535h150.8v14h-138zM140 646.19v-33.4H86.8v32.4H74v-32.4H14.8v33.4H2v-47.4h150.8v47.4H140z"/></svg>