<?xml version="1.0" encoding="utf-8"?>
<!-- Generator: Adobe Illustrator 19.0.1, SVG Export Plug-In . SVG Version: 6.00 Build 0)  -->
<svg version="1.1" id="Layer_1" xmlns="http://www.w3.org/2000/svg" xmlns:xlink="http://www.w3.org/1999/xlink" x="0px" y="0px"
	 viewBox="0 0 112.97 75.98" style="enable-background:new 0 0 112.97 75.98;" xml:space="preserve">
<style type="text/css">
	.st0{fill-rule:evenodd;clip-rule:evenodd;}
</style>
<g>
	<path class="st0" d="M44.23,55.68c-1.84,4.13-5.56,7.39-5.56,9c0,4.36,3.49,5.03,6.58,5.03c1.94,0,8.73-1.55,10.67-1.55
		c1.93,0,7.14,1.55,9.08,1.55c6.78,0,9.29-2.03,9.29-6.97c0-4.94-2.95-2.89-6.63-5.8c-0.45-0.38-0.86-0.81-1.25-1.27l8.05,0.01
		c-0.05,0.39-0.05,0.78,0.03,1.17c0.39,1.55,2.14,3.57,2.14,5.51c0,4.65-4.98,8.52-9.71,9.08c-2.85,1.09-4.76,4.12-8.49,4.47
		c-3.32,0.31-5.44-0.38-8.27-2.15c-1.57-0.98-2.91-1.92-3.56-3.15c-1.38-0.13-4.07,0.78-6.13-0.45c-2.26-1.35-3.33-3.94-3.33-5.87
		c0-1.94,3.1-5.03,3.1-6.97c0-0.7-1.01-0.99-1.82-1.63L44.23,55.68L44.23,55.68z M48.03,70.56c0,0,5.32-1.23,8.76-1.06
		c3.21,0.16,8.07,1.69,8.07,1.69s-4.87,3.24-8.36,3.17C52.88,74.28,48.03,70.56,48.03,70.56L48.03,70.56z"/>
	<path class="st0" d="M38.4,55.68c-0.52-0.41-0.96-0.96-1.01-1.86c-0.01-0.16,2.04,0.15,1.99-0.19c-0.08-0.5-0.76-1.1-0.67-1.47
		l-2.67,0.38c-0.11-1.03-1.9-2.08-1.23-2.51c-2.09-0.68-3.28-3.85-3.28-6.66c0-2.06,2.38-7.03,4.79-8.37
		c0.08-0.65-0.57-0.46-0.82-1.27c0,0-3.8,2.28-4.19,3.06c-0.39-0.77-1.9-2.15-2.45-3.51c-2.8,1.53-8.4,2.34-10.33,2.34
		c-1.94,0-3.36-0.77-5.95-0.89c-0.11-1.05-0.89-0.66-0.89-2.6c0-1.94,6.39-10.64,7.83-11.98c0,0,0.11-0.44-0.43-1.1
		c-2.07,1.48-9.14,10.2-10.83,12.65c-2.51,0.05-2.51-0.73-3.56-0.84c-0.11-1.05,1.15-3.07,1.89-4.39c-0.67-0.56-2.39,0.63-3.48,0.47
		c0.72-2.67,1.59-4.87,1.89-7.59c-0.34,1.34-3.12,2.33-5,2.14c0.27-3.82,6.82-6.01,9.24-6.01c1.44,0,2.24,0.26,3.35,0.69
		c0.38,0.15,0.8,0.85,1.3,0.85c0.55,0,0.96-0.8,1.37-1.06c1.17-0.74,2.32-1.34,6.68,0.29l1.25-1.14l-0.77-0.8
		c2.82-0.3,5.86-1.16,8.26,3.5c3.6-1.54,7.7-1.9,11.28-4.13c2.52-1.55,4.11-8.08,7.05-8.84c0.87-0.23,0.68,1.97,1.15,1.98
		c0.33,0.01,0.95-1.81,1.27-1.84c1.62-0.15,3.14-0.74,4.51-1.39C57.2,3.04,58.04,0,59.97,0s2.32,0.78,4.21,0.97
		c-1.31,2.47-2.64,2.89-2.54,3.59c0.03,0.23,1.02,0.5,1.15,0.88c0.36-0.31,2.4-2.21,3.04-1.91c0.88,0.41,0.94,3.01,0.94,1.9
		c0,1.94-1.77,5.81-2.15,8.13c-0.39-0.77-2.15-1.94-2.72-1.99c-0.63,1.39,0.01,2.77-0.11,4.59c-0.85,0.12-4.69,0.37-3.52,2.29
		c-1.71-0.35-3.67-0.63-5.06-0.5c-0.93,1.63-2.94,2.83-3.9,3.92c-1.3,1.48-1.42,2.78-1.38,4.71c0.69,0.65,2.14,0.58,3.81,1.5v3.59
		c-1.07,0.1-1.57,0.76-2.23,1.26c0.66,0.5,1.16,1.16,2.21,1.28c0.06,1.32,0.27,2.03-0.2,2.49c-0.45,0.45-1.58,0.66-1.83,0.96
		c0.14,0.5,0.8,1.04,0.81,1.6c0.04,1.35-1.44,2.79-1.73,4.05c-0.1,0.44,0.73,0.85,0.73,1.24c0,1.98-2.56,4.67-4.3,7.47
		c-0.1,1.29-0.47,2.52-0.99,3.68L38.4,55.68L38.4,55.68z M66.41,55.68c-0.45-0.52-0.88-1.06-1.33-1.57
		c-0.07-0.07,1.46-0.59,2.12-1.14c0.75-0.61,0.65-1.26,0.57-1.34c-0.06-0.06-0.31-0.56-0.79-0.33c-0.43,0.21,0.07,0.61-0.27,1.03
		c-0.55,0.65-1.84,1.32-1.93,1.24c-0.61-0.56-2-1.54-2.8-1.83c-0.08-1,0.81-2.05,1.48-2.61c-0.39-0.69-1.66-1.18-2.62-0.83
		c-1.02-0.53-1.48-1.78-1.48-2.7c0-1.07,1.01-0.86,0.24-4.26c2.11-2.08,5.81-2.28,8.34-4.09c0.09-0.47-0.39-0.94-0.51-1.63
		c-1.16,1.45-4.36,2.6-6.4,3.25c1.03-1.24,2.37-3.23,2.73-5.51c2.57-2.56,6.99-5.18,9.07-6.35c0,0,0.1-0.39-0.55-1.08
		c-1.4,0.03-7.84,6.51-8.31,4.63c-0.37-1.47,1.04-1.12,1.04-3.06c0-1.94-1.43-4.37-3.09-6.14c1.69-3.05,6.09-5.86,8.9-5.86
		c4.55,0,7.03,2.71,10.03,5.43c2.83-3.64,12.21-2.79,16.18-4.15c1.35-0.39,2.67-2.71,4.76-2.52c2.09,0.18,2.5,2.06,4.25,3.27
		c-1.15,0.3-2.43,0.96-3.09,1.45c2.39,2.05,4.23,1.36,6.07,3.01c1.06,0.97,2.24,2.07,3.94,2.99c0.06,0.98-0.83,2.03-2.29,3.45
		c0.01,0.9,0.98,1.54,1.62,2.38c0.36,0.47,0.01,1.6-0.06,2.28c-0.5-0.2-0.39-0.95-0.85-1.09c-1.32-0.4-2.49-0.72-3.54-1.81
		c-0.63,0.03-1.2,1.52-1.97,2c-1.54,1.06-4.04,1.12-5.49,1.29c-0.69,0.53-1.39,2.02-2.56,3.36c-1.37,0.34-3.49,0.21-4.64,1.55
		c0,0-3.44-0.53-3.46,0.16c-1.71,0.92-3.43,0.18-5.18,0.13c0,0-0.07-0.83-0.96-1.85c0.71-1.05,0.33-1.69,0.8-2.07
		c0.48-0.38,1.81-0.51,2.35-0.54v-1.95c-0.35-0.22-0.78-0.44-1.6-0.51c-0.63-0.06-0.01,0.92-0.61,1.31
		c-0.39,0.25-1.98-0.1-2.39,0.07c-0.94,0.37-3.04,1.18-2.08,1.07c0.63-0.08,1.28,0.57,1.98,0.98c-2.43,2.66-4.82,5.81-8.34,7.93
		c0.58,1.29-0.95,2.2-0.95,4.14c0,1.94,1.55-0.39,1.55,1.55c0,1.94-1.55,1.94-1.58,2.56c0.69,0.65,1.19,0.54,2.24,0.65
		c0.09,1.34-0.37,2.54-0.5,3.66L66.41,55.68L66.41,55.68z"/>
	<path d="M50.92,56.04l-2.05-0.53c0,0-6.29,5.76-4.25,8.24c2.04,2.48,2.57,1.95,4.16,1.77c1.59-0.18,4.26-2.66,4.26-2.66l-2.76-2.48
		c0,0-3.54,3.19-3.9,2.12C46.04,61.44,50.92,56.04,50.92,56.04L50.92,56.04z"/>
	<path d="M60.33,56.04l2.05-0.53c0,0,5.47,3.99,3.98,7.09c-1.39,2.89-2,2.82-3.89,2.92c-1.16,0.06-2.84-0.88-2.84-0.88l1.86-3.19
		c0,0,2.39,0.62,2.74-0.44C64.58,59.94,60.33,56.04,60.33,56.04L60.33,56.04z"/>
	<polygon points="-110.88,302 -104.01,286.04 -101.18,301.13 -98.61,301.13 -103.11,278.06 -110.88,296.41 -118.64,278.06 
		-123.14,301.13 -120.57,301.13 -117.77,286.04 -110.88,302 	"/>
	<polygon points="-71.53,301.13 -68.89,301.13 -68.89,278.92 -71.53,278.92 -71.53,301.13 	"/>
	<polygon points="-36.17,301.13 -25.15,301.13 -25.15,298.62 -33.53,298.62 -33.53,278.92 -36.17,278.92 -36.17,301.13 	"/>
	<polygon points="3.78,301.13 6.39,301.13 6.39,289.17 16.39,301.13 19.81,301.13 9.34,288.92 18.87,278.92 15.71,278.92 
		6.39,288.8 6.39,278.92 3.78,278.92 3.78,301.13 	"/>
	<path class="st0" d="M97.25,284.24v-3.45c-2.3-1.58-4.66-2.39-7.3-2.39c-3.26,0-6,1.08-8.26,3.26c-2.33,2.27-3.48,5.03-3.48,8.48
		c0,3.94,1.77,7.3,5,9.53c1.93,1.34,4.19,2.05,6.55,2.05c2.7,0,5.28-0.84,7.49-2.42v-3.51c-2.02,2.36-4.47,3.51-7.27,3.51
		c-3.01,0-5.71-1.43-7.48-3.95c-1.02-1.46-1.52-3.2-1.52-5.25c0-2.61,0.84-4.78,2.55-6.55c1.65-1.71,4.01-2.7,6.33-2.7
		C92.75,280.85,95.11,281.91,97.25,284.24L97.25,284.24z"/>
	<path class="st0" d="M148.99,290.07c0-3.16-1.18-6.05-3.45-8.26c-2.24-2.18-5.28-3.38-8.42-3.38c-3.13,0-6.15,1.21-8.38,3.38
		c-2.27,2.21-3.48,5.1-3.48,8.26c0,3.17,1.21,6.03,3.48,8.23c2.24,2.17,5.25,3.41,8.38,3.41c3.11,0,6.15-1.21,8.42-3.41
		C147.78,296.13,148.99,293.24,148.99,290.07L148.99,290.07z M137.13,299.23c-2.45,0-4.66-0.93-6.43-2.7
		c-1.74-1.77-2.67-3.98-2.67-6.46c0-2.48,0.93-4.75,2.67-6.52c1.71-1.74,3.98-2.67,6.43-2.67c2.46,0,4.69,0.93,6.43,2.67
		c1.74,1.74,2.67,4.04,2.67,6.52c0,2.49-0.93,4.72-2.67,6.46C141.79,298.31,139.55,299.23,137.13,299.23L137.13,299.23z"/>
	<polygon points="185.42,302 192.29,286.04 195.11,301.13 197.69,301.13 193.19,278.06 185.42,296.41 177.66,278.06 173.15,301.13 
		175.73,301.13 178.52,286.04 185.42,302 	"/>
	<path class="st0" d="M228.55,288.77v-7.42h1.33c3.85,0,5.75,0.62,5.75,3.85c0,3.07-1.93,3.57-5.75,3.57H228.55L228.55,288.77z
		 M228.55,291.16h1.33c0.25,0,0.5,0,0.75,0c2.3,0,4.1-0.06,5.59-1.12c1.4-0.99,2.27-2.82,2.27-5c0-2.17-0.87-4.01-2.27-5
		c-1.49-1.06-3.32-1.12-5.59-1.12c-0.25,0-0.5,0-0.75,0h-3.91v22.21h2.58V291.16L228.55,291.16z"/>
	<path class="st0" d="M271.27,278.06l-10.06,23.07h2.85l2.89-6.8h8.67l2.89,6.8h2.86L271.27,278.06L271.27,278.06z M271.27,283.89
		l3.54,8.17h-7.08L271.27,283.89L271.27,283.89z"/>
	<polygon points="306.66,301.13 309.18,301.13 309.18,284.45 325.42,302 325.42,278.92 322.91,278.92 322.91,295.79 306.66,278.06 
		306.66,301.13 	"/>
	<polygon points="359.5,301.13 362.14,301.13 362.14,290.98 369.66,278.92 366.61,278.92 360.84,288.55 355.03,278.92 
		351.99,278.92 359.5,290.98 359.5,301.13 	"/>
	<path d="M-101.54,244.01l-7.01-3.09c-4.47-1.93-6.6-4.4-6.6-7.91c0-4.19,3.1-7.15,7.5-7.15c3.51,0,6.19,1.93,8.32,5.64l4.81-3.1
		c-2.41-4.88-6.81-7.42-12.72-7.42c-8.18,0-13.82,5.23-13.82,12.1c0,5.98,3.16,10.25,9.69,13l5.98,2.54
		c5.09,2.2,7.63,5.43,7.63,9.83c0,5.36-3.92,9.15-9.83,9.15c-4.95,0-8.32-3.09-9.76-9.08l-5.29,2.61
		c1.86,7.29,7.29,11.41,15.06,11.41c9.49,0,15.75-6.05,15.75-15.06C-91.84,251.3-95.07,246.76-101.54,244.01L-101.54,244.01z"/>
	<polygon points="-33.33,271.31 -27.49,271.31 -27.49,246.62 -1.36,246.62 -1.36,271.31 4.56,271.31 4.56,222.15 -1.36,222.15 
		-1.36,241.06 -27.49,241.06 -27.49,222.15 -33.33,222.15 -33.33,271.31 	"/>
	<path class="st0" d="M82.62,220.22l-22.28,51.09h6.33l6.4-15.06h19.19l6.39,15.06h6.33L82.62,220.22L82.62,220.22z M82.62,233.15
		l7.84,18.08H74.78L82.62,233.15L82.62,233.15z"/>
	<polygon points="165.56,271.31 171.47,271.31 171.47,227.71 185.29,227.71 185.29,222.15 151.67,222.15 151.67,227.71 
		165.56,227.71 165.56,271.31 	"/>
	<polygon points="253.74,271.31 259.65,271.31 259.65,227.71 273.47,227.71 273.47,222.15 239.85,222.15 239.85,227.71 
		253.74,227.71 253.74,271.31 	"/>
	<path class="st0" d="M374.79,246.83c0-7.01-2.61-13.4-7.63-18.29c-4.95-4.81-11.69-7.5-18.63-7.5c-6.95,0-13.62,2.68-18.56,7.5
		c-5.02,4.88-7.7,11.28-7.7,18.29c0,7.02,2.68,13.34,7.7,18.22c4.95,4.81,11.62,7.57,18.56,7.57c6.88,0,13.62-2.68,18.63-7.57
		C372.1,260.24,374.79,253.85,374.79,246.83L374.79,246.83z M348.52,267.12c-5.43,0-10.32-2.07-14.24-5.98
		c-3.85-3.92-5.91-8.81-5.91-14.31c0-5.5,2.07-10.52,5.91-14.44c3.79-3.85,8.81-5.91,14.24-5.91c5.43,0,10.39,2.06,14.23,5.91
		c3.85,3.85,5.92,8.94,5.92,14.44c0,5.5-2.07,10.46-5.92,14.31C358.84,265.05,353.89,267.12,348.52,267.12L348.52,267.12z"/>
</g>
</svg>
