<svg id="Layer_1" xmlns="http://www.w3.org/2000/svg" viewBox="0 0 112.97 75.98"><style>.st0{fill-rule:evenodd;clip-rule:evenodd}</style><path class="st0" d="M44.23 55.68c-1.84 4.13-5.56 7.39-5.56 9 0 4.36 3.49 5.03 6.58 5.03 1.94 0 8.73-1.55 10.67-1.55 1.93 0 7.14 1.55 9.08 1.55 6.78 0 9.29-2.03 9.29-6.97 0-4.94-2.95-2.89-6.63-5.8-.45-.38-.86-.81-1.25-1.27l8.05.01c-.05.39-.05.78.03 1.17.39 1.55 2.14 3.57 2.14 5.51 0 4.65-4.98 8.52-9.71 9.08-2.85 1.09-4.76 4.12-8.49 4.47-3.32.31-5.44-.38-8.27-2.15-1.57-.98-2.91-1.92-3.56-3.15-1.38-.13-4.07.78-6.13-.45-2.26-1.35-3.33-3.94-3.33-5.87 0-1.94 3.1-5.03 3.1-6.97 0-.7-1.01-.99-1.82-1.63l5.81-.01zm3.8 14.88s5.32-1.23 8.76-1.06c3.21.16 8.07 1.69 8.07 1.69s-4.87 3.24-8.36 3.17c-3.62-.08-8.47-3.8-8.47-3.8z"/><path class="st0" d="M38.4 55.68c-.52-.41-.96-.96-1.01-1.86-.01-.16 2.04.15 1.99-.19-.08-.5-.76-1.1-.67-1.47l-2.67.38c-.11-1.03-1.9-2.08-1.23-2.51-2.09-.68-3.28-3.85-3.28-6.66 0-2.06 2.38-7.03 4.79-8.37.08-.65-.57-.46-.82-1.27 0 0-3.8 2.28-4.19 3.06-.39-.77-1.9-2.15-2.45-3.51-2.8 1.53-8.4 2.34-10.33 2.34-1.94 0-3.36-.77-5.95-.89-.11-1.05-.89-.66-.89-2.6s6.39-10.64 7.83-11.98c0 0 .11-.44-.43-1.1-2.07 1.48-9.14 10.2-10.83 12.65-2.51.05-2.51-.73-3.56-.84-.11-1.05 1.15-3.07 1.89-4.39-.67-.56-2.39.63-3.48.47.72-2.67 1.59-4.87 1.89-7.59-.34 1.34-3.12 2.33-5 2.14.27-3.82 6.82-6.01 9.24-6.01 1.44 0 2.24.26 3.35.69.38.15.8.85 1.3.85.55 0 .96-.8 1.37-1.06 1.17-.74 2.32-1.34 6.68.29l1.25-1.14-.77-.8c2.82-.3 5.86-1.16 8.26 3.5 3.6-1.54 7.7-1.9 11.28-4.13 2.52-1.55 4.11-8.08 7.05-8.84.87-.23.68 1.97 1.15 1.98.33.01.95-1.81 1.27-1.84 1.62-.15 3.14-.74 4.51-1.39C57.2 3.04 58.04 0 59.97 0s2.32.78 4.21.97c-1.31 2.47-2.64 2.89-2.54 3.59.03.23 1.02.5 1.15.88.36-.31 2.4-2.21 3.04-1.91.88.41.94 3.01.94 1.9 0 1.94-1.77 5.81-2.15 8.13-.39-.77-2.15-1.94-2.72-1.99-.63 1.39.01 2.77-.11 4.59-.85.12-4.69.37-3.52 2.29-1.71-.35-3.67-.63-5.06-.5-.93 1.63-2.94 2.83-3.9 3.92-1.3 1.48-1.42 2.78-1.38 4.71.69.65 2.14.58 3.81 1.5v3.59c-1.07.1-1.57.76-2.23 1.26.66.5 1.16 1.16 2.21 1.28.06 1.32.27 2.03-.2 2.49-.45.45-1.58.66-1.83.96.14.5.8 1.04.81 1.6.04 1.35-1.44 2.79-1.73 4.05-.1.44.73.85.73 1.24 0 1.98-2.56 4.67-4.3 7.47-.1 1.29-.47 2.52-.99 3.68l-5.81-.02zm28.01 0c-.45-.52-.88-1.06-1.33-1.57-.07-.07 1.46-.59 2.12-1.14.75-.61.65-1.26.57-1.34-.06-.06-.31-.56-.79-.33-.43.21.07.61-.27 1.03-.55.65-1.84 1.32-1.93 1.24-.61-.56-2-1.54-2.8-1.83-.08-1 .81-2.05 1.48-2.61-.39-.69-1.66-1.18-2.62-.83-1.02-.53-1.48-1.78-1.48-2.7 0-1.07 1.01-.86.24-4.26 2.11-2.08 5.81-2.28 8.34-4.09.09-.47-.39-.94-.51-1.63-1.16 1.45-4.36 2.6-6.4 3.25 1.03-1.24 2.37-3.23 2.73-5.51 2.57-2.56 6.99-5.18 9.07-6.35 0 0 .1-.39-.55-1.08-1.4.03-7.84 6.51-8.31 4.63-.37-1.47 1.04-1.12 1.04-3.06s-1.43-4.37-3.09-6.14c1.69-3.05 6.09-5.86 8.9-5.86 4.55 0 7.03 2.71 10.03 5.43 2.83-3.64 12.21-2.79 16.18-4.15 1.35-.39 2.67-2.71 4.76-2.52 2.09.18 2.5 2.06 4.25 3.27-1.15.3-2.43.96-3.09 1.45 2.39 2.05 4.23 1.36 6.07 3.01 1.06.97 2.24 2.07 3.94 2.99.06.98-.83 2.03-2.29 3.45.01.9.98 1.54 1.62 2.38.36.47.01 1.6-.06 2.28-.5-.2-.39-.95-.85-1.09-1.32-.4-2.49-.72-3.54-1.81-.63.03-1.2 1.52-1.97 2-1.54 1.06-4.04 1.12-5.49 1.29-.69.53-1.39 2.02-2.56 3.36-1.37.34-3.49.21-4.64 1.55 0 0-3.44-.53-3.46.16-1.71.92-3.43.18-5.18.13 0 0-.07-.83-.96-1.85.71-1.05.33-1.69.8-2.07.48-.38 1.81-.51 2.35-.54v-1.95c-.35-.22-.78-.44-1.6-.51-.63-.06-.01.92-.61 1.31-.39.25-1.98-.1-2.39.07-.94.37-3.04 1.18-2.08 1.07.63-.08 1.28.57 1.98.98-2.43 2.66-4.82 5.81-8.34 7.93.58 1.29-.95 2.2-.95 4.14 0 1.94 1.55-.39 1.55 1.55s-1.55 1.94-1.58 2.56c.69.65 1.19.54 2.24.65.09 1.34-.37 2.54-.5 3.66h-8.04z"/><path d="M50.92 56.04l-2.05-.53s-6.29 5.76-4.25 8.24c2.04 2.48 2.57 1.95 4.16 1.77 1.59-.18 4.26-2.66 4.26-2.66l-2.76-2.48s-3.54 3.19-3.9 2.12c-.34-1.06 4.54-6.46 4.54-6.46zM60.33 56.04l2.05-.53s5.47 3.99 3.98 7.09c-1.39 2.89-2 2.82-3.89 2.92-1.16.06-2.84-.88-2.84-.88l1.86-3.19s2.39.62 2.74-.44c.35-1.07-3.9-4.97-3.9-4.97zM-110.88 302l6.87-15.96 2.83 15.09h2.57l-4.5-23.07-7.77 18.35-7.76-18.35-4.5 23.07h2.57l2.8-15.09 6.89 15.96zM-71.53 301.13h2.64v-22.21h-2.64v22.21zM-36.17 301.13h11.02v-2.51h-8.38v-19.7h-2.64v22.21zM3.78 301.13h2.61v-11.96l10 11.96h3.42L9.34 288.92l9.53-10h-3.16l-9.32 9.88v-9.88H3.78v22.21z"/><path class="st0" d="M97.25 284.24v-3.45c-2.3-1.58-4.66-2.39-7.3-2.39-3.26 0-6 1.08-8.26 3.26-2.33 2.27-3.48 5.03-3.48 8.48 0 3.94 1.77 7.3 5 9.53 1.93 1.34 4.19 2.05 6.55 2.05 2.7 0 5.28-.84 7.49-2.42v-3.51c-2.02 2.36-4.47 3.51-7.27 3.51-3.01 0-5.71-1.43-7.48-3.95-1.02-1.46-1.52-3.2-1.52-5.25 0-2.61.84-4.78 2.55-6.55 1.65-1.71 4.01-2.7 6.33-2.7 2.89 0 5.25 1.06 7.39 3.39zM148.99 290.07c0-3.16-1.18-6.05-3.45-8.26-2.24-2.18-5.28-3.38-8.42-3.38-3.13 0-6.15 1.21-8.38 3.38-2.27 2.21-3.48 5.1-3.48 8.26 0 3.17 1.21 6.03 3.48 8.23 2.24 2.17 5.25 3.41 8.38 3.41 3.11 0 6.15-1.21 8.42-3.41 2.24-2.17 3.45-5.06 3.45-8.23zm-11.86 9.16c-2.45 0-4.66-.93-6.43-2.7-1.74-1.77-2.67-3.98-2.67-6.46s.93-4.75 2.67-6.52c1.71-1.74 3.98-2.67 6.43-2.67 2.46 0 4.69.93 6.43 2.67 1.74 1.74 2.67 4.04 2.67 6.52 0 2.49-.93 4.72-2.67 6.46-1.77 1.78-4.01 2.7-6.43 2.7z"/><path d="M185.42 302l6.87-15.96 2.82 15.09h2.58l-4.5-23.07-7.77 18.35-7.76-18.35-4.51 23.07h2.58l2.79-15.09 6.9 15.96z"/><path class="st0" d="M228.55 288.77v-7.42h1.33c3.85 0 5.75.62 5.75 3.85 0 3.07-1.93 3.57-5.75 3.57h-1.33zm0 2.39h2.08c2.3 0 4.1-.06 5.59-1.12 1.4-.99 2.27-2.82 2.27-5 0-2.17-.87-4.01-2.27-5-1.49-1.06-3.32-1.12-5.59-1.12h-4.66v22.21h2.58v-9.97zM271.27 278.06l-10.06 23.07h2.85l2.89-6.8h8.67l2.89 6.8h2.86l-10.1-23.07zm0 5.83l3.54 8.17h-7.08l3.54-8.17z"/><path d="M306.66 301.13h2.52v-16.68L325.42 302v-23.08h-2.51v16.87l-16.25-17.73v23.07zM359.5 301.13h2.64v-10.15l7.52-12.06h-3.05l-5.77 9.63-5.81-9.63h-3.04l7.51 12.06v10.15zM-101.54 244.01l-7.01-3.09c-4.47-1.93-6.6-4.4-6.6-7.91 0-4.19 3.1-7.15 7.5-7.15 3.51 0 6.19 1.93 8.32 5.64l4.81-3.1c-2.41-4.88-6.81-7.42-12.72-7.42-8.18 0-13.82 5.23-13.82 12.1 0 5.98 3.16 10.25 9.69 13l5.98 2.54c5.09 2.2 7.63 5.43 7.63 9.83 0 5.36-3.92 9.15-9.83 9.15-4.95 0-8.32-3.09-9.76-9.08l-5.29 2.61c1.86 7.29 7.29 11.41 15.06 11.41 9.49 0 15.75-6.05 15.75-15.06-.01-6.18-3.24-10.72-9.71-13.47zM-33.33 271.31h5.84v-24.69h26.13v24.69h5.92v-49.16h-5.92v18.91h-26.13v-18.91h-5.84v49.16z"/><path class="st0" d="M82.62 220.22l-22.28 51.09h6.33l6.4-15.06h19.19l6.39 15.06h6.33l-22.36-51.09zm0 12.93l7.84 18.08H74.78l7.84-18.08z"/><path d="M165.56 271.31h5.91v-43.6h13.82v-5.56h-33.62v5.56h13.89v43.6zM253.74 271.31h5.91v-43.6h13.82v-5.56h-33.62v5.56h13.89v43.6z"/><path class="st0" d="M374.79 246.83c0-7.01-2.61-13.4-7.63-18.29-4.95-4.81-11.69-7.5-18.63-7.5-6.95 0-13.62 2.68-18.56 7.5-5.02 4.88-7.7 11.28-7.7 18.29 0 7.02 2.68 13.34 7.7 18.22 4.95 4.81 11.62 7.57 18.56 7.57 6.88 0 13.62-2.68 18.63-7.57 4.94-4.81 7.63-11.2 7.63-18.22zm-26.27 20.29c-5.43 0-10.32-2.07-14.24-5.98-3.85-3.92-5.91-8.81-5.91-14.31s2.07-10.52 5.91-14.44c3.79-3.85 8.81-5.91 14.24-5.91s10.39 2.06 14.23 5.91c3.85 3.85 5.92 8.94 5.92 14.44s-2.07 10.46-5.92 14.31c-3.91 3.91-8.86 5.98-14.23 5.98z"/></svg>