<?xml version="1.0" encoding="utf-8"?>
<!-- Generator: Adobe Illustrator 19.0.1, SVG Export Plug-In . SVG Version: 6.00 Build 0)  -->
<svg version="1.1" id="Layer_1" xmlns="http://www.w3.org/2000/svg" xmlns:xlink="http://www.w3.org/1999/xlink" x="0px" y="0px"
	 viewBox="0 0 497.93 81.78" style="enable-background:new 0 0 497.93 81.78;" xml:space="preserve">

<polygon points="12.27,81.78 19.13,65.81 21.96,80.91 24.54,80.91 20.03,57.84 12.27,76.19 4.5,57.84 0,80.91 2.58,80.91 
	5.37,65.81 12.27,81.78 "/>
<polygon points="51.61,80.91 54.25,80.91 54.25,58.7 51.61,58.7 51.61,80.91 "/>
<polygon points="86.97,80.91 98,80.91 98,78.4 89.61,78.4 89.61,58.7 86.97,58.7 86.97,80.91 "/>
<polygon points="126.92,80.91 129.53,80.91 129.53,68.95 139.53,80.91 142.95,80.91 132.48,68.7 142.02,58.7 138.85,58.7 
	129.53,68.58 129.53,58.7 126.92,58.7 126.92,80.91 "/>
<path class="st0" d="M220.4,64.01v-3.45c-2.3-1.58-4.66-2.39-7.3-2.39c-3.26,0-6,1.08-8.26,3.26c-2.33,2.27-3.48,5.03-3.48,8.48
	c0,3.94,1.77,7.3,5,9.53c1.93,1.34,4.19,2.05,6.55,2.05c2.7,0,5.28-0.84,7.49-2.42v-3.51c-2.02,2.36-4.47,3.51-7.27,3.51
	c-3.01,0-5.71-1.43-7.48-3.95c-1.02-1.46-1.52-3.2-1.52-5.25c0-2.61,0.84-4.78,2.55-6.55c1.65-1.71,4.01-2.7,6.33-2.7
	C215.89,60.63,218.25,61.69,220.4,64.01L220.4,64.01z"/>
<path class="st0" d="M272.14,69.85c0-3.16-1.18-6.05-3.45-8.26c-2.24-2.18-5.28-3.38-8.42-3.38c-3.13,0-6.15,1.21-8.38,3.38
	c-2.27,2.21-3.48,5.1-3.48,8.26c0,3.17,1.21,6.03,3.48,8.23c2.24,2.17,5.25,3.41,8.38,3.41c3.11,0,6.15-1.21,8.42-3.41
	C270.93,75.91,272.14,73.02,272.14,69.85L272.14,69.85z M260.27,79.01c-2.45,0-4.66-0.93-6.43-2.7c-1.74-1.77-2.67-3.98-2.67-6.46
	c0-2.48,0.93-4.75,2.67-6.52c1.71-1.74,3.98-2.67,6.43-2.67c2.46,0,4.69,0.93,6.43,2.67c1.74,1.74,2.67,4.04,2.67,6.52
	c0,2.49-0.93,4.72-2.67,6.46C264.94,78.08,262.7,79.01,260.27,79.01L260.27,79.01z"/>
<polygon points="308.56,81.78 315.43,65.81 318.26,80.91 320.83,80.91 316.33,57.84 308.56,76.19 300.8,57.84 296.3,80.91 
	298.88,80.91 301.67,65.81 308.56,81.78 "/>
<path class="st0" d="M351.7,68.55v-7.42h1.33c3.85,0,5.75,0.62,5.75,3.85c0,3.07-1.93,3.57-5.75,3.57H351.7L351.7,68.55z
	 M351.7,70.94h1.33c0.25,0,0.5,0,0.75,0c2.3,0,4.1-0.06,5.59-1.12c1.4-0.99,2.27-2.82,2.27-5c0-2.17-0.87-4.01-2.27-5
	c-1.49-1.06-3.32-1.12-5.59-1.12c-0.25,0-0.5,0-0.75,0h-3.91v22.21h2.58V70.94L351.7,70.94z"/>
<path class="st0" d="M394.41,57.84l-10.06,23.07h2.85l2.89-6.8h8.67l2.89,6.8h2.86L394.41,57.84L394.41,57.84z M394.41,63.67
	l3.54,8.17h-7.08L394.41,63.67L394.41,63.67z"/>
<polygon points="429.81,80.91 432.32,80.91 432.32,64.23 448.57,81.78 448.57,58.7 446.05,58.7 446.05,75.57 429.81,57.84 
	429.81,80.91 "/>
<polygon points="482.65,80.91 485.28,80.91 485.28,70.75 492.8,58.7 489.76,58.7 483.98,68.33 478.17,58.7 475.13,58.7 
	482.65,70.75 482.65,80.91 "/>
<path d="M21.61,23.79l-7.01-3.09c-4.47-1.93-6.6-4.4-6.6-7.91c0-4.19,3.1-7.15,7.5-7.15c3.51,0,6.19,1.93,8.32,5.64l4.81-3.1
	C26.22,3.3,21.81,0.76,15.9,0.76c-8.18,0-13.82,5.23-13.82,12.1c0,5.98,3.16,10.25,9.69,13l5.98,2.54c5.09,2.2,7.63,5.43,7.63,9.83
	c0,5.36-3.92,9.15-9.83,9.15c-4.95,0-8.32-3.09-9.76-9.08L0.5,40.92c1.86,7.29,7.29,11.41,15.06,11.41
	c9.49,0,15.75-6.05,15.75-15.06C31.3,31.08,28.07,26.54,21.61,23.79L21.61,23.79z"/>
<polygon points="89.81,51.09 95.66,51.09 95.66,26.4 121.79,26.4 121.79,51.09 127.7,51.09 127.7,1.93 121.79,1.93 121.79,20.84 
	95.66,20.84 95.66,1.93 89.81,1.93 89.81,51.09 "/>
<path class="st0" d="M205.76,0l-22.28,51.09h6.33l6.4-15.06h19.19l6.39,15.06h6.33L205.76,0L205.76,0z M205.76,12.93l7.84,18.08
	h-15.68L205.76,12.93L205.76,12.93z"/>
<polygon points="288.71,51.09 294.62,51.09 294.62,7.49 308.44,7.49 308.44,1.93 274.81,1.93 274.81,7.49 288.71,7.49 288.71,51.09 
	"/>
<polygon points="376.89,51.09 382.8,51.09 382.8,7.49 396.62,7.49 396.62,1.93 362.99,1.93 362.99,7.49 376.89,7.49 376.89,51.09 
	"/>
<path class="st0" d="M497.93,26.61c0-7.01-2.61-13.4-7.63-18.29c-4.95-4.81-11.69-7.5-18.63-7.5c-6.95,0-13.62,2.68-18.56,7.5
	c-5.02,4.88-7.7,11.28-7.7,18.29c0,7.02,2.68,13.34,7.7,18.22c4.95,4.81,11.62,7.57,18.56,7.57c6.88,0,13.62-2.68,18.63-7.57
	C495.25,40.02,497.93,33.62,497.93,26.61L497.93,26.61z M471.66,46.9c-5.43,0-10.32-2.07-14.24-5.98
	c-3.85-3.92-5.91-8.81-5.91-14.31c0-5.5,2.07-10.52,5.91-14.44c3.79-3.85,8.81-5.91,14.24-5.91c5.43,0,10.39,2.06,14.23,5.91
	c3.85,3.85,5.92,8.94,5.92,14.44c0,5.5-2.07,10.46-5.92,14.31C481.98,44.83,477.03,46.9,471.66,46.9L471.66,46.9z"/>
<g>
</g>
<g>
</g>
<g>
</g>
<g>
</g>
<g>
</g>
<g>
</g>
</svg>
