<svg xmlns="http://www.w3.org/2000/svg" viewBox="0 0 497.93 81.78"><path d="M12.27 81.78l6.86-15.97 2.83 15.1h2.58l-4.51-23.07-7.76 18.35L4.5 57.84 0 80.91h2.58l2.79-15.1 6.9 15.97zM51.61 80.91h2.64V58.7h-2.64v22.21zM86.97 80.91H98V78.4h-8.39V58.7h-2.64v22.21zM126.92 80.91h2.61V68.95l10 11.96h3.42L132.48 68.7l9.54-10h-3.17l-9.32 9.88V58.7h-2.61v22.21z"/><path class="st0" d="M220.4 64.01v-3.45c-2.3-1.58-4.66-2.39-7.3-2.39-3.26 0-6 1.08-8.26 3.26-2.33 2.27-3.48 5.03-3.48 8.48 0 3.94 1.77 7.3 5 9.53a11.42 11.42 0 0 0 6.55 2.05c2.7 0 5.28-.84 7.49-2.42v-3.51c-2.02 2.36-4.47 3.51-7.27 3.51-3.01 0-5.71-1.43-7.48-3.95-1.02-1.46-1.52-3.2-1.52-5.25 0-2.61.84-4.78 2.55-6.55 1.65-1.71 4.01-2.7 6.33-2.7 2.88.01 5.24 1.07 7.39 3.39zM272.14 69.85c0-3.16-1.18-6.05-3.45-8.26-2.24-2.18-5.28-3.38-8.42-3.38-3.13 0-6.15 1.21-8.38 3.38-2.27 2.21-3.48 5.1-3.48 8.26 0 3.17 1.21 6.03 3.48 8.23 2.24 2.17 5.25 3.41 8.38 3.41 3.11 0 6.15-1.21 8.42-3.41 2.24-2.17 3.45-5.06 3.45-8.23zm-11.87 9.16c-2.45 0-4.66-.93-6.43-2.7-1.74-1.77-2.67-3.98-2.67-6.46s.93-4.75 2.67-6.52c1.71-1.74 3.98-2.67 6.43-2.67 2.46 0 4.69.93 6.43 2.67 1.74 1.74 2.67 4.04 2.67 6.52 0 2.49-.93 4.72-2.67 6.46-1.76 1.77-4 2.7-6.43 2.7z"/><path d="M308.56 81.78l6.87-15.97 2.83 15.1h2.57l-4.5-23.07-7.77 18.35-7.76-18.35-4.5 23.07h2.58l2.79-15.1 6.89 15.97z"/><path class="st0" d="M351.7 68.55v-7.42h1.33c3.85 0 5.75.62 5.75 3.85 0 3.07-1.93 3.57-5.75 3.57h-1.33zm0 2.39h2.08c2.3 0 4.1-.06 5.59-1.12 1.4-.99 2.27-2.82 2.27-5 0-2.17-.87-4.01-2.27-5-1.49-1.06-3.32-1.12-5.59-1.12h-4.66v22.21h2.58v-9.97zM394.41 57.84l-10.06 23.07h2.85l2.89-6.8h8.67l2.89 6.8h2.86l-10.1-23.07zm0 5.83l3.54 8.17h-7.08l3.54-8.17z"/><path d="M429.81 80.91h2.51V64.23l16.25 17.55V58.7h-2.52v16.87l-16.24-17.73v23.07zM482.65 80.91h2.63V70.75l7.52-12.05h-3.04l-5.78 9.63-5.81-9.63h-3.04l7.52 12.05v10.16zM21.61 23.79L14.6 20.7C10.13 18.77 8 16.3 8 12.79c0-4.19 3.1-7.15 7.5-7.15 3.51 0 6.19 1.93 8.32 5.64l4.81-3.1C26.22 3.3 21.81.76 15.9.76 7.72.76 2.08 5.99 2.08 12.86c0 5.98 3.16 10.25 9.69 13l5.98 2.54c5.09 2.2 7.63 5.43 7.63 9.83 0 5.36-3.92 9.15-9.83 9.15-4.95 0-8.32-3.09-9.76-9.08L.5 40.92c1.86 7.29 7.29 11.41 15.06 11.41 9.49 0 15.75-6.05 15.75-15.06-.01-6.19-3.24-10.73-9.7-13.48zM89.81 51.09h5.85V26.4h26.13v24.69h5.91V1.93h-5.91v18.91H95.66V1.93h-5.85v49.16z"/><path class="st0" d="M205.76 0l-22.28 51.09h6.33l6.4-15.06h19.19l6.39 15.06h6.33L205.76 0zm0 12.93l7.84 18.08h-15.68l7.84-18.08z"/><path d="M288.71 51.09h5.91V7.49h13.82V1.93h-33.63v5.56h13.9v43.6zM376.89 51.09h5.91V7.49h13.82V1.93h-33.63v5.56h13.9v43.6z"/><path class="st0" d="M497.93 26.61c0-7.01-2.61-13.4-7.63-18.29-4.95-4.81-11.69-7.5-18.63-7.5-6.95 0-13.62 2.68-18.56 7.5-5.02 4.88-7.7 11.28-7.7 18.29 0 7.02 2.68 13.34 7.7 18.22 4.95 4.81 11.62 7.57 18.56 7.57 6.88 0 13.62-2.68 18.63-7.57 4.95-4.81 7.63-11.21 7.63-18.22zM471.66 46.9c-5.43 0-10.32-2.07-14.24-5.98-3.85-3.92-5.91-8.81-5.91-14.31s2.07-10.52 5.91-14.44c3.79-3.85 8.81-5.91 14.24-5.91s10.39 2.06 14.23 5.91c3.85 3.85 5.92 8.94 5.92 14.44s-2.07 10.46-5.92 14.31c-3.91 3.91-8.86 5.98-14.23 5.98z"/></svg>