<?xml version="1.0" encoding="utf-8"?>
<!-- Generator: Adobe Illustrator 19.0.1, SVG Export Plug-In . SVG Version: 6.00 Build 0)  -->
<svg version="1.1" id="Layer_1" xmlns="http://www.w3.org/2000/svg" xmlns:xlink="http://www.w3.org/1999/xlink" x="0px" y="0px"
	 viewBox="0 0 30.27 20.18" style="enable-background:new 0 0 30.27 20.18;" xml:space="preserve">
<style type="text/css">
	.st0{fill:#999999;}
	.st1{fill:#999999;stroke:#000000;stroke-width:0;stroke-linecap:round;stroke-linejoin:round;}
</style>
<g>
	<path class="st0" d="M70.11,2.39c-0.91,0.41-1.9,0.68-2.93,0.8c1.05-0.63,1.86-1.63,2.24-2.82c-0.98,0.58-2.07,1.01-3.23,1.24
		C65.26,0.62,63.93,0,62.47,0c-2.81,0-5.09,2.28-5.09,5.09c0,0.4,0.05,0.79,0.13,1.16c-4.23-0.21-7.99-2.24-10.5-5.32
		c-0.44,0.75-0.69,1.63-0.69,2.56c0,1.77,0.9,3.33,2.27,4.24c-0.84-0.03-1.62-0.26-2.31-0.64c0,0.02,0,0.04,0,0.06
		c0,2.47,1.76,4.53,4.09,4.99c-0.43,0.12-0.88,0.18-1.34,0.18c-0.33,0-0.65-0.03-0.96-0.09c0.65,2.02,2.53,3.5,4.76,3.54
		c-1.74,1.37-3.94,2.18-6.33,2.18c-0.41,0-0.82-0.02-1.22-0.07c2.25,1.45,4.93,2.29,7.81,2.29c9.37,0,14.49-7.76,14.49-14.49
		c0-0.22,0-0.44-0.01-0.66C68.56,4.31,69.43,3.41,70.11,2.39z"/>
	<path id="White_4_" class="st0" d="M104.19,0H86.23c-0.62,0-1.11,0.5-1.11,1.11v17.95c0,0.62,0.5,1.11,1.11,1.11h9.66v-7.81h-2.63
		V9.32h2.63V7.07c0-2.61,1.59-4.03,3.92-4.03c1.11,0,2.07,0.08,2.35,0.12v2.72l-1.61,0c-1.26,0-1.51,0.6-1.51,1.48v1.94h3.02
		l-0.39,3.05h-2.62v7.81h5.14c0.62,0,1.11-0.5,1.11-1.11V1.11C105.3,0.5,104.8,0,104.19,0z"/>
	<path class="st0" d="M120.31,2.33v15.52c0,1.29,1.04,2.33,2.33,2.33h15.52c1.29,0,2.33-1.04,2.33-2.33V2.33
		c0-1.29-1.04-2.33-2.33-2.33h-15.53C121.35,0,120.31,1.04,120.31,2.33z M134.28,3.1c0-0.43,0.35-0.78,0.78-0.78h2.33
		c0.43,0,0.78,0.35,0.78,0.78v2.33c0,0.43-0.35,0.78-0.78,0.78h-2.33c-0.43,0-0.78-0.35-0.78-0.78V3.1z M130.4,6.21
		c2.14,0,3.88,1.74,3.88,3.88c0,2.14-1.74,3.88-3.88,3.88c-2.14,0-3.88-1.74-3.88-3.88C126.52,7.95,128.26,6.21,130.4,6.21z
		 M122.64,8.54h1.76c-0.13,0.5-0.2,1.02-0.2,1.55c0,3.43,2.78,6.21,6.21,6.21c3.43,0,6.21-2.78,6.21-6.21c0-0.54-0.08-1.06-0.2-1.55
		h1.76v8.54c0,0.43-0.35,0.78-0.78,0.78h-13.97c-0.43,0-0.78-0.35-0.78-0.78V8.54z"/>
	<g>
		<path class="st0" d="M0.88,0.34C1.2,0.13,1.59,0,2,0C1.59,0,1.2,0.13,0.88,0.34z"/>
		<path class="st0" d="M0.34,19.29c0.14,0.21,0.33,0.4,0.54,0.54C0.67,19.69,0.49,19.51,0.34,19.29z"/>
		<line class="st1" x1="3.36" y1="20.18" x2="3.36" y2="20.18"/>
		<line class="st1" x1="26.9" y1="20.18" x2="26.91" y2="20.18"/>
		<line class="st1" x1="26.9" y1="0" x2="26.9" y2="0"/>
		<line class="st1" x1="3.36" y1="0" x2="3.36" y2="0"/>
		<path class="st0" d="M29.72,0.64c-0.02-0.02-0.03-0.04-0.04-0.05c-0.09-0.09-0.19-0.17-0.3-0.24c-0.19-0.13-0.4-0.22-0.63-0.27
			C28.6,0.03,28.44,0,28.27,0H26.9h0H3.36h0H2C1.59,0,1.2,0.13,0.88,0.34C0.35,0.7,0,1.31,0,2v1.36v0.1v13.16v0.19v1.36
			c0,0.41,0.13,0.8,0.34,1.12c0.14,0.21,0.33,0.4,0.54,0.54c0.11,0.07,0.22,0.13,0.34,0.18c0.24,0.1,0.5,0.16,0.78,0.16h1.36h0H26.9
			h0h1.36c0.28,0,0.54-0.06,0.78-0.16c0.12-0.05,0.23-0.11,0.34-0.18c0.21-0.14,0.4-0.33,0.54-0.54c0.22-0.32,0.34-0.7,0.34-1.12
			v-1.36v-0.19V3.46v-0.1V2C30.27,1.47,30.06,1,29.72,0.64z M24.86,2h0.85h0.85l-11.43,8.31L3.71,2h0.85h0.85H24.86z M2,4.92V4.3
			V3.68l6.51,4.74L2,15.86V15.1v-0.76V4.92z M4.44,18.18H3.77H3.11l7.32-8.37l4.01,2.92c0.41,0.29,0.99,0.29,1.39,0l4.01-2.92
			l7.32,8.37h-0.66h-0.66H4.44z M28.27,14.34v0.76v0.76l-6.51-7.44l6.51-4.74V4.3v0.62V14.34z"/>
	</g>
</g>
</svg>
