<svg id="Layer_1" xmlns="http://www.w3.org/2000/svg" viewBox="0 0 30.27 20.18"><style>.st0,.st1{fill:#999}.st1{stroke:#000;stroke-width:0;stroke-linecap:round;stroke-linejoin:round}</style><path class="st0" d="M70.11 2.39c-.91.41-1.9.68-2.93.8A5.116 5.116 0 0 0 69.42.37c-.98.58-2.07 1.01-3.23 1.24a5.091 5.091 0 0 0-8.81 3.48c0 .4.05.79.13 1.16A14.46 14.46 0 0 1 47.01.93c-.44.75-.69 1.63-.69 2.56 0 1.77.9 3.33 2.27 4.24-.84-.03-1.62-.26-2.31-.64v.06c0 2.47 1.76 4.53 4.09 4.99-.43.12-.88.18-1.34.18-.33 0-.65-.03-.96-.09.65 2.02 2.53 3.5 4.76 3.54a10.193 10.193 0 0 1-6.33 2.18c-.41 0-.82-.02-1.22-.07 2.25 1.45 4.93 2.29 7.81 2.29 9.37 0 14.49-7.76 14.49-14.49 0-.22 0-.44-.01-.66.99-.71 1.86-1.61 2.54-2.63z"/><path id="White_4_" class="st0" d="M104.19 0H86.23c-.62 0-1.11.5-1.11 1.11v17.95c0 .62.5 1.11 1.11 1.11h9.66v-7.81h-2.63V9.32h2.63V7.07c0-2.61 1.59-4.03 3.92-4.03 1.11 0 2.07.08 2.35.12v2.72h-1.61c-1.26 0-1.51.6-1.51 1.48V9.3h3.02l-.39 3.05h-2.62v7.81h5.14c.62 0 1.11-.5 1.11-1.11V1.11c0-.61-.5-1.11-1.11-1.11z"/><path class="st0" d="M120.31 2.33v15.52c0 1.29 1.04 2.33 2.33 2.33h15.52c1.29 0 2.33-1.04 2.33-2.33V2.33c0-1.29-1.04-2.33-2.33-2.33h-15.53c-1.28 0-2.32 1.04-2.32 2.33zm13.97.77c0-.43.35-.78.78-.78h2.33c.43 0 .78.35.78.78v2.33c0 .43-.35.78-.78.78h-2.33c-.43 0-.78-.35-.78-.78V3.1zm-3.88 3.11c2.14 0 3.88 1.74 3.88 3.88 0 2.14-1.74 3.88-3.88 3.88-2.14 0-3.88-1.74-3.88-3.88 0-2.14 1.74-3.88 3.88-3.88zm-7.76 2.33h1.76c-.13.5-.2 1.02-.2 1.55a6.21 6.21 0 1 0 12.42 0c0-.54-.08-1.06-.2-1.55h1.76v8.54c0 .43-.35.78-.78.78h-13.97c-.43 0-.78-.35-.78-.78V8.54zM.88.34zM.34 19.29z"/><path class="st1" d="M26.9 20.18h.01M3.36 0"/><path class="st0" d="M29.72.64c-.02-.02-.03-.04-.04-.05-.09-.09-.19-.17-.3-.24-.19-.13-.4-.22-.63-.27a1.51 1.51 0 0 0-.48-.08H2C1.59 0 1.2.13.88.34.35.7 0 1.31 0 2v16.17c0 .41.13.8.34 1.12.14.21.33.4.54.54.11.07.22.13.34.18.24.1.5.16.78.16H28.26c.28 0 .54-.06.78-.16.12-.05.23-.11.34-.18.21-.14.4-.33.54-.54.22-.32.34-.7.34-1.12V2c.01-.53-.2-1-.54-1.36zM24.86 2h1.7l-11.43 8.31L3.71 2h21.15zM2 4.92V3.68l6.51 4.74L2 15.86V4.92zm2.44 13.26H3.11l7.32-8.37 4.01 2.92c.41.29.99.29 1.39 0l4.01-2.92 7.32 8.37H4.44zm23.83-3.84v1.52l-6.51-7.44 6.51-4.74v10.66z"/></svg>