<?xml version="1.0" encoding="utf-8"?>
<!-- Generator: Adobe Illustrator 18.1.1, SVG Export Plug-In . SVG Version: 6.00 Build 0)  -->
<svg version="1.1" id="Layer_1" xmlns="http://www.w3.org/2000/svg" xmlns:xlink="http://www.w3.org/1999/xlink" x="0px" y="0px"
	 viewBox="0 0 154.8 646.19" style="enable-background:new 0 0 154.8 646.19;" xml:space="preserve">
<g>
	<path d="M2,103.2V89.4l111.2-10.6c4.8-0.4,9.4-0.6,14.2-0.8v-0.8c-10-1.2-19.8-1.6-29.8-3.4L2,57.4V46l111.2-16.6
		c4.8-0.8,9.4-1.2,14.2-1.8V27c-9.8-0.4-20-0.2-29.6-1.4L2,13.6V0l150.8,21.2v12l-112.4,17c-5,0.8-10,1.2-15,1.8v0.6
		c8.6,1,17.4,1.6,26,3l101.4,17.2v12L2,103.2z"/>
	<path d="M77.4,194.4c-28.2,0-77.4-2-77.4-37c0-33,42.2-37,77.4-37c38.2,0,77.4,5,77.4,37C154.8,191.4,110.6,194.4,77.4,194.4z
		 M77.4,134.8c-26.6,0-63.8,1-63.8,22.6S50.8,180,77.4,180s63.8-1,63.8-22.6C142.2,135.8,104,134.8,77.4,134.8z"/>
	<path d="M77.4,288.6c-28.2,0-77.4-2-77.4-37c0-33,42.2-37,77.4-37c38.2,0,77.4,5,77.4,37C154.8,285.6,110.6,288.6,77.4,288.6z
		 M77.4,229c-26.6,0-63.8,1-63.8,22.6c0,21.6,37.2,22.6,63.8,22.6s63.8-1,63.8-22.6C142.2,230,104,229,77.4,229z"/>
	<path d="M77.4,382.8c-28.2,0-77.4-2-77.4-37c0-33,42.2-37,77.4-37c38.2,0,77.4,5,77.4,37C154.8,379.8,110.6,382.8,77.4,382.8z
		 M77.4,323.2c-26.6,0-63.8,1-63.8,22.6s37.2,22.6,63.8,22.6s63.8-1,63.8-22.6C142.2,324.2,104,323.2,77.4,323.2z"/>
	<path d="M152.8,427c0,19.8-2.4,36.2-37.4,36.2c-14.8,0-27.4-2.6-35.4-17.6c-5.8,18-19.8,21.2-36.6,21.2C12,466.8,2,456,2,425.6
		v-18.2h150.8V427z M74.2,421.4H14v3.8c0,21,6.8,27.2,28.4,27.2c25.4,0,31.8-9,31.8-26.8V421.4z M140.8,421.4H86.2v3.8
		c0,11.4-2,23.6,28.2,23.6c23.8,0,26.4-5.6,26.4-23.6V421.4z"/>
	<path d="M2,506v-14h150.8v14H2z"/>
	<path d="M14.8,549v32.8H2V535h150.8v14H14.8z"/>
	<path d="M140,646.19v-33.4H86.8v32.4H74v-32.4H14.8v33.4H2v-47.4h150.8v47.4H140z"/>
</g>
</svg>
